<svg width="323" height="66" viewBox="0 0 323 66" fill="none" xmlns="http://www.w3.org/2000/svg">
<g clip-path="url(#clip0_1_3)">
<path d="M309.396 51.5308C314.654 51.5308 319.661 48.7385 319.661 42.6461C319.661 33.1692 303.971 34.3538 303.971 26.1461C303.971 22.3385 306.474 20.3923 309.98 20.3923C317.742 20.3923 320.83 31.2231 321.08 31.8154L322.332 31.1385L320.246 18.4461H319.995L318.159 20.3077C317.825 20.6461 317.491 20.7308 317.158 20.7308C315.488 20.7308 314.403 18.4461 309.396 18.4461C304.638 18.4461 299.63 21.6615 299.63 27.3308C299.63 38.1615 315.906 36.2154 315.906 44.4231C315.906 47.6385 314.07 49.5 309.646 49.5C299.213 49.5 296.459 38.6692 296.292 38.0769L295.04 38.7538L297.127 51.4461H297.377L299.213 49.5846C299.547 49.2461 299.881 49.1615 300.215 49.1615C301.801 49.2461 303.637 51.5308 309.396 51.5308ZM277.263 22.3385H283.856L278.765 45.1846C276.762 54.1538 274.508 60.4154 266.329 60.4154H259.652C258.901 60.7538 258.15 61.8538 258.15 63.1231C258.15 64.9846 259.485 65.4923 261.071 65.4923C273.841 65.4923 278.264 55.5077 281.936 42.6461L287.779 22.3385H295.958L296.626 19.1231H288.697L290.032 14.3C292.119 7.10769 293.621 3.8923 296.125 3.8923C299.297 3.8923 298.629 7.10769 301.801 7.10769C303.637 7.10769 304.555 5.66923 304.555 4.23076C304.555 2.11538 303.386 0.761536 300.716 0.761536C296.459 0.761536 287.528 5.66923 285.525 14.7231L284.524 19.1231H277.93L277.263 22.3385ZM267.497 31.2231H249.553C251.222 26.0615 255.395 22.3385 260.654 22.3385C266.913 22.3385 267.497 26.7385 267.497 29.2769V31.2231ZM273.089 37.5692L271.837 36.8923C271.253 38.3308 267.08 47.7231 258.734 47.7231C252.474 47.7231 248.718 42.6461 248.718 36.3C248.718 35.6231 248.802 35.0308 248.802 34.4385H268.749L270.586 26.8231C271.17 24.4538 269.918 18.5308 263.074 18.5308C254.31 18.5308 245.547 28.6846 245.547 39.5154C245.547 47.1308 249.303 51.5308 256.23 51.5308C266.496 51.5308 272.255 39.3461 273.089 37.5692ZM230.774 34.5231L228.604 42.5615C228.27 43.7461 228.103 45.1 228.103 45.9461C228.103 48.9077 229.605 50.8538 232.109 50.8538H233.361C234.613 50.1769 235.782 49.1615 237.701 46.4538L241.874 40.7L240.622 40.0231C237.284 44.6769 235.615 46.3692 234.112 46.3692C231.609 46.3692 231.108 44.8461 231.108 43.1538C231.108 41.7154 231.692 40.2769 233.695 35.2846C235.531 30.5461 236.783 28.0923 236.783 24.7077C236.783 21.7461 235.281 18.3615 230.44 18.3615C225.015 18.3615 220.842 22.2538 216.919 31.0538L213.247 39.3461H212.496C221.676 6.85384 222.511 2.45384 222.511 1.6923L222.261 1.43846H210.993L210.326 4.56923H217.17L207.237 50.9385H210.993L217.17 35.0308C221.092 24.8769 223.346 22.3385 227.185 22.3385C230.357 22.3385 232.109 24.7923 232.109 27.8385C232.193 30.4615 231.358 32.1538 230.774 34.5231ZM187.373 51.5308C197.639 51.5308 203.398 39.3461 204.233 37.5692L202.981 36.8923C202.313 38.3308 198.224 47.7231 189.794 47.7231C183.534 47.7231 179.778 42.6461 179.778 36.3C179.778 28.0077 186.038 21.0692 193.55 21.0692C196.053 21.0692 197.806 22.4231 197.806 25.4692V27.9231C197.806 29.7 198.724 30.6308 200.394 30.6308C202.23 30.6308 203.398 29.1923 203.398 26.4C203.398 23.0154 201.812 18.5308 194.134 18.5308C185.37 18.5308 176.607 28.6846 176.607 39.5154C176.69 47.1308 180.446 51.5308 187.373 51.5308ZM163.42 28.0923C166.675 28.0923 168.094 31.9 168.094 36.2154H157.16C157.828 31.3923 159.831 28.0923 163.42 28.0923ZM172.767 42.3077L171.432 41.7154C170.764 44.5923 169.262 48.9077 164.254 48.9077C159.58 48.9077 156.993 44.0846 156.993 38.9231C156.993 38.4154 156.993 37.9923 157.076 37.4846H172.35C172.35 31.3077 169.763 26.5692 162.919 26.5692C156.826 26.5692 152.57 31.8154 152.57 38.9231C152.57 46.0308 156.659 51.2769 163.169 51.2769C170.347 51.3615 172.434 44 172.767 42.3077ZM149.815 50.9385V49.5H148.48C146.143 49.5 145.642 48.9923 145.642 46.6231V13.7923L145.141 13.2846L137.379 16.5846L137.88 18.0231L138.798 17.6C139.382 17.3461 140.05 17.0923 140.551 17.0923C141.386 17.0923 141.636 17.6 141.636 18.9538V46.4538C141.636 48.8231 141.135 49.3308 138.798 49.3308H137.546V50.7692L149.815 50.9385ZM127.197 39.9385C127.197 42.8154 125.778 48.9923 119.018 48.9923C116.597 48.9923 114.761 47.8077 114.761 44.9308C114.761 41.3769 116.597 39.8538 119.435 39.1769L125.194 37.7385C126.195 37.4846 126.863 37.1461 127.197 36.6385V39.9385ZM121.772 28.0923C125.528 28.0923 127.197 30.7154 127.197 32.8308C127.197 35.7077 125.528 36.8923 120.854 37.3154C115.011 37.9077 110.254 39.4308 110.254 45.1846C110.254 48.9923 112.841 51.3615 117.599 51.3615C123.691 51.3615 126.112 46.9615 126.947 45.5231H127.113V46.7923C127.113 49.1615 128.282 51.2769 131.12 51.2769C133.957 51.2769 135.46 48.9077 136.628 46.0308L135.293 45.4385C135.042 46.2846 134.208 48.8231 132.372 48.8231C131.12 48.8231 130.702 47.6385 130.786 45.5231L131.287 34.2692C131.537 28.3461 126.613 26.4 121.939 26.4C115.846 26.4 111.589 29.9538 111.589 32.5769C111.589 34.0154 112.508 34.4385 113.593 34.4385C115.345 34.4385 115.846 33.4231 117.014 31.1385C118.016 29.6154 118.517 28.0923 121.772 28.0923ZM78.8721 50.9385V49.5H77.7036C75.3667 49.5 74.8659 48.9923 74.8659 46.6231V35.9615C74.8659 32.5769 77.954 30.0385 81.0421 30.0385C84.2972 30.0385 85.4656 31.8154 85.4656 34.2692V46.7077C85.4656 49.0769 84.9649 49.5846 82.6279 49.5846H81.2091V51.0231H93.3946V49.5846H92.2261C89.8892 49.5846 89.3884 49.0769 89.3884 46.7077V35.9615C89.3884 32.5769 92.4765 30.0385 95.5646 30.0385C98.8196 30.0385 99.9881 31.8154 99.9881 34.2692V46.7077C99.9881 49.0769 99.4873 49.5846 97.1504 49.5846H95.7315V51.0231H107.917V49.5846H106.749C104.412 49.5846 103.911 49.0769 103.911 46.7077V33.3385C103.911 28.7692 101.574 26.6538 97.9016 26.6538C94.0623 26.6538 91.0576 29.7846 89.3049 32.1538H89.138C88.6372 28.6 86.6341 26.6538 83.3791 26.6538C78.8721 26.6538 75.6171 30.9692 74.0313 33.3385H73.8643L75.2832 27.1615L74.7824 26.6538L66.6031 29.9538L67.1039 31.3923L68.022 30.9692C68.6062 30.7154 69.2739 30.4615 69.7747 30.4615C70.6093 30.4615 70.8597 30.9692 70.8597 32.3231V46.5385C70.8597 48.9077 70.3589 49.4154 68.022 49.4154H66.6031V50.8538L78.8721 50.9385ZM59.3419 31.2231H41.3974C43.0667 26.0615 47.2398 22.3385 52.4979 22.3385C58.7576 22.3385 59.3419 26.7385 59.3419 29.2769V31.2231ZM64.9339 37.5692L63.6819 36.8923C63.0142 38.3308 58.9245 47.7231 50.4948 47.7231C44.2351 47.7231 40.4793 42.6461 40.4793 36.3C40.4793 35.6231 40.5628 35.0308 40.6463 34.4385H60.5103L62.3465 26.8231C62.9307 24.4538 61.6788 18.5308 54.8349 18.5308C46.0713 18.5308 37.3078 28.6846 37.3078 39.5154C37.3078 47.1308 41.0636 51.5308 47.991 51.5308C58.3403 51.5308 64.0992 39.3461 64.9339 37.5692ZM19.1129 22.3385H25.7065L20.6152 45.1846C18.6121 54.1538 16.3587 60.4154 8.17933 60.4154H1.50233C0.751163 60.8385 0 61.8538 0 63.1231C0 64.9846 1.41886 65.4923 2.83773 65.4923C15.6075 65.4923 20.031 55.5077 23.7034 42.6461L29.5457 22.3385H37.7251L38.3928 19.1231H30.4638L31.8827 14.3C33.9693 7.10769 35.4716 3.8923 37.9755 3.8923C41.147 3.8923 40.4793 7.10769 43.6509 7.10769C45.4871 7.10769 46.4052 5.66923 46.4052 4.23076C46.4052 2.11538 45.3202 0.761536 42.4824 0.761536C38.2258 0.761536 29.2954 5.66923 27.2922 14.7231L26.2907 19.1231H19.6137L19.1129 22.3385Z" fill="black"/>
</g>
<defs>
<clipPath id="clip0_1_3">
<rect width="323" height="66" fill="white"/>
</clipPath>
</defs>
</svg>
